<mxfile host="app.diagrams.net" agent="Mozilla/5.0 (Windows NT 10.0; Win64; x64) AppleWebKit/537.36 (KHTML, like Gecko) Chrome/130.0.0.0 Safari/537.36" version="24.8.3">
  <diagram name="Page-1" id="97916047-d0de-89f5-080d-49f4d83e522f">
    <mxGraphModel dx="1195" dy="615" grid="1" gridSize="10" guides="1" tooltips="1" connect="1" arrows="1" fold="1" page="1" pageScale="1.5" pageWidth="1169" pageHeight="827" background="none" math="0" shadow="0">
      <root>
        <mxCell id="0" />
        <mxCell id="1" parent="0" />
        <mxCell id="2" value="&#xa;נועם ניזרי&#xa;מנכ&quot;ל העמותה&#xa;" style="rounded=1;fillColor=#d80073;strokeColor=#A50040;shadow=1;fontStyle=1;fontColor=#ffffff;fontSize=14;" parent="1" vertex="1">
          <mxGeometry x="745" y="205.5" width="130" height="60" as="geometry" />
        </mxCell>
        <mxCell id="3" value="ליאם אביבי&#xa;סמנכ&quot;ל תפעול וכספים" style="rounded=1;fillColor=#d80073;strokeColor=#A50040;shadow=1;fontStyle=1;fontColor=#ffffff;fontSize=14;" parent="1" vertex="1">
          <mxGeometry x="735" y="310" width="150" height="60" as="geometry" />
        </mxCell>
        <mxCell id="4" value="יובל ברגיל&#xa;רכז חונכים" style="rounded=1;fillColor=#d80073;strokeColor=#A50040;shadow=1;fontStyle=1;fontColor=#ffffff;fontSize=14;" parent="1" vertex="1">
          <mxGeometry x="450" y="455.5" width="100" height="60" as="geometry" />
        </mxCell>
        <mxCell id="5" value="ליה צוהר&#xa;רכזת משפחות" style="rounded=1;fillColor=#d80073;strokeColor=#A50040;shadow=1;fontStyle=1;fontColor=#ffffff;fontSize=14;" parent="1" vertex="1">
          <mxGeometry x="590" y="457.75" width="110" height="60" as="geometry" />
        </mxCell>
        <mxCell id="6" value="נבו ג׳יבלי&#xa;רכז בוגרים " style="rounded=1;fillColor=#d80073;strokeColor=#A50040;shadow=1;fontStyle=1;fontColor=#ffffff;fontSize=14;align=center;" parent="1" vertex="1">
          <mxGeometry x="930" y="460" width="100" height="60" as="geometry" />
        </mxCell>
        <mxCell id="29" value="" style="edgeStyle=elbowEdgeStyle;elbow=vertical;strokeWidth=4;endArrow=block;endFill=1;fontStyle=1;strokeColor=#23445D;" parent="1" source="2" target="3" edge="1">
          <mxGeometry x="22" y="165.5" width="100" height="100" as="geometry">
            <mxPoint x="22" y="265.5" as="sourcePoint" />
            <mxPoint x="122" y="165.5" as="targetPoint" />
          </mxGeometry>
        </mxCell>
        <mxCell id="30" value="" style="edgeStyle=elbowEdgeStyle;elbow=vertical;strokeWidth=4;endArrow=block;endFill=1;fontStyle=1;strokeColor=#23445D;" parent="1" source="3" target="5" edge="1">
          <mxGeometry x="22" y="165.5" width="100" height="100" as="geometry">
            <mxPoint x="22" y="265.5" as="sourcePoint" />
            <mxPoint x="122" y="165.5" as="targetPoint" />
          </mxGeometry>
        </mxCell>
        <mxCell id="31" value="" style="edgeStyle=elbowEdgeStyle;elbow=vertical;strokeWidth=4;endArrow=block;endFill=1;fontStyle=1;strokeColor=#23445D;" parent="1" source="3" target="4" edge="1">
          <mxGeometry x="22" y="165.5" width="100" height="100" as="geometry">
            <mxPoint x="22" y="265.5" as="sourcePoint" />
            <mxPoint x="122" y="165.5" as="targetPoint" />
          </mxGeometry>
        </mxCell>
        <mxCell id="32" value="" style="edgeStyle=elbowEdgeStyle;elbow=vertical;strokeWidth=4;endArrow=block;endFill=1;fontStyle=1;strokeColor=#23445D;" parent="1" source="3" target="6" edge="1">
          <mxGeometry x="22" y="165.5" width="100" height="100" as="geometry">
            <mxPoint x="22" y="265.5" as="sourcePoint" />
            <mxPoint x="122" y="165.5" as="targetPoint" />
          </mxGeometry>
        </mxCell>
        <mxCell id="bQVK4K-JHT9RS3OZxk5x-55" value="אילה קריץ&#xa;רכזת טכנולוגיה&#xa;רכזת רישום משפחות ומתנדבים " style="rounded=1;fillColor=#d80073;strokeColor=#A50040;shadow=1;fontStyle=1;fontColor=#ffffff;fontSize=14;" vertex="1" parent="1">
          <mxGeometry x="1070" y="460" width="210" height="60" as="geometry" />
        </mxCell>
        <mxCell id="bQVK4K-JHT9RS3OZxk5x-56" value="" style="edgeStyle=elbowEdgeStyle;elbow=vertical;strokeWidth=4;endArrow=block;endFill=1;fontStyle=1;strokeColor=#23445D;entryX=0.5;entryY=0;entryDx=0;entryDy=0;exitX=0.5;exitY=1;exitDx=0;exitDy=0;spacingRight=0;" edge="1" parent="1" source="3" target="bQVK4K-JHT9RS3OZxk5x-55">
          <mxGeometry width="100" height="100" as="geometry">
            <mxPoint x="770" y="410" as="sourcePoint" />
            <mxPoint x="1230" y="455.5" as="targetPoint" />
          </mxGeometry>
        </mxCell>
        <mxCell id="bQVK4K-JHT9RS3OZxk5x-59" value="טל לנגרמן&#xa;רכזת מתנדבים" style="rounded=1;fillColor=#d80073;strokeColor=#A50040;shadow=1;fontStyle=1;fontColor=#ffffff;fontSize=14;" vertex="1" parent="1">
          <mxGeometry x="750" y="455.5" width="120" height="64.5" as="geometry" />
        </mxCell>
        <mxCell id="bQVK4K-JHT9RS3OZxk5x-60" value="" style="edgeStyle=elbowEdgeStyle;elbow=vertical;strokeWidth=4;endArrow=block;endFill=1;fontStyle=1;strokeColor=#23445D;entryX=0.5;entryY=0;entryDx=0;entryDy=0;exitX=0.5;exitY=1;exitDx=0;exitDy=0;" edge="1" parent="1" target="bQVK4K-JHT9RS3OZxk5x-59" source="3">
          <mxGeometry x="22" y="165.5" width="100" height="100" as="geometry">
            <mxPoint x="760" y="580" as="sourcePoint" />
            <mxPoint x="1220" y="625.5" as="targetPoint" />
            <Array as="points">
              <mxPoint x="810" y="410" />
            </Array>
          </mxGeometry>
        </mxCell>
        <mxCell id="bQVK4K-JHT9RS3OZxk5x-61" value="בוגרים " style="rounded=1;fillColor=#d80073;strokeColor=#A50040;shadow=1;fontStyle=1;fontColor=#ffffff;fontSize=14;align=center;" vertex="1" parent="1">
          <mxGeometry x="930" y="570" width="100" height="60" as="geometry" />
        </mxCell>
        <mxCell id="bQVK4K-JHT9RS3OZxk5x-63" value="" style="edgeStyle=elbowEdgeStyle;elbow=vertical;strokeWidth=4;endArrow=block;endFill=1;fontStyle=1;strokeColor=#23445D;exitX=0.5;exitY=1;exitDx=0;exitDy=0;entryX=0.5;entryY=0;entryDx=0;entryDy=0;" edge="1" parent="1" source="6" target="bQVK4K-JHT9RS3OZxk5x-61">
          <mxGeometry x="22" y="165.5" width="100" height="100" as="geometry">
            <mxPoint x="800" y="560" as="sourcePoint" />
            <mxPoint x="970" y="650" as="targetPoint" />
          </mxGeometry>
        </mxCell>
        <mxCell id="bQVK4K-JHT9RS3OZxk5x-64" value="מתנדבים" style="rounded=1;fillColor=#d80073;strokeColor=#A50040;shadow=1;fontStyle=1;fontColor=#ffffff;fontSize=14;align=center;" vertex="1" parent="1">
          <mxGeometry x="760" y="570" width="100" height="60" as="geometry" />
        </mxCell>
        <mxCell id="bQVK4K-JHT9RS3OZxk5x-65" value="" style="edgeStyle=elbowEdgeStyle;elbow=vertical;strokeWidth=4;endArrow=block;endFill=1;fontStyle=1;strokeColor=#23445D;entryX=0.5;entryY=0;entryDx=0;entryDy=0;exitX=0.5;exitY=1;exitDx=0;exitDy=0;" edge="1" parent="1" target="bQVK4K-JHT9RS3OZxk5x-64" source="bQVK4K-JHT9RS3OZxk5x-59">
          <mxGeometry x="22" y="165.5" width="100" height="100" as="geometry">
            <mxPoint x="790" y="540" as="sourcePoint" />
            <mxPoint x="800" y="650" as="targetPoint" />
          </mxGeometry>
        </mxCell>
        <mxCell id="bQVK4K-JHT9RS3OZxk5x-68" value="חונכים" style="rounded=1;fillColor=#d80073;strokeColor=#A50040;shadow=1;fontStyle=1;fontColor=#ffffff;fontSize=14;align=center;" vertex="1" parent="1">
          <mxGeometry x="450" y="570" width="100" height="60" as="geometry" />
        </mxCell>
        <mxCell id="bQVK4K-JHT9RS3OZxk5x-69" value="" style="edgeStyle=elbowEdgeStyle;elbow=vertical;strokeWidth=4;endArrow=block;endFill=1;fontStyle=1;strokeColor=#23445D;entryX=0.5;entryY=0;entryDx=0;entryDy=0;" edge="1" parent="1" target="bQVK4K-JHT9RS3OZxk5x-68" source="4">
          <mxGeometry x="22" y="165.5" width="100" height="100" as="geometry">
            <mxPoint x="500" y="530" as="sourcePoint" />
            <mxPoint x="490" y="660" as="targetPoint" />
          </mxGeometry>
        </mxCell>
        <mxCell id="bQVK4K-JHT9RS3OZxk5x-70" value="משפחות" style="rounded=1;fillColor=#d80073;strokeColor=#A50040;shadow=1;fontStyle=1;fontColor=#ffffff;fontSize=14;align=center;" vertex="1" parent="1">
          <mxGeometry x="595" y="570" width="100" height="60" as="geometry" />
        </mxCell>
        <mxCell id="bQVK4K-JHT9RS3OZxk5x-71" value="" style="edgeStyle=elbowEdgeStyle;elbow=vertical;strokeWidth=4;endArrow=block;endFill=1;fontStyle=1;strokeColor=#23445D;entryX=0.5;entryY=0;entryDx=0;entryDy=0;exitX=0.5;exitY=1;exitDx=0;exitDy=0;" edge="1" parent="1" target="bQVK4K-JHT9RS3OZxk5x-70" source="5">
          <mxGeometry x="22" y="165.5" width="100" height="100" as="geometry">
            <mxPoint x="650" y="531.37" as="sourcePoint" />
            <mxPoint x="635" y="688.62" as="targetPoint" />
          </mxGeometry>
        </mxCell>
      </root>
    </mxGraphModel>
  </diagram>
</mxfile>
